<svg id="Capa_1" enable-background="new 0 0 512 512" height="512" viewBox="0 0 512 512" width="512" xmlns="http://www.w3.org/2000/svg"><g><g><g><g><g><g><g><circle cx="256" cy="256" fill="#00c8c8" r="256"/></g></g></g></g></g></g><path d="m512 256c0-17.943-1.846-35.455-5.358-52.356l-61.281-61.281-325.385 64.968-53.337 179.984 113.149 113.149c24.074 7.497 49.671 11.536 76.212 11.536 141.385 0 256-114.615 256-256z" fill="#1baaaa"/><g><g><path d="m66.639 256.982h55.536v130.333h-55.536z" fill="#636978"/></g></g><g><g><path d="m389.824 256.982h55.536v130.333h-55.536z" fill="#414952"/></g></g><g><g><path d="m66.639 142.363h378.721v129.936h-378.721z" fill="#fff"/></g></g><g><g><path d="m66.639 142.363h188.133v129.936h-188.133z" fill="#fff"/><path d="m254.773 142.363h190.588v129.936h-190.588z" fill="#e9edf5"/></g></g><g><g><path d="m99.239 237.479v-66.745h48.933v15.01h-31.721v10.407h31.021v15.01h-31.021v26.318z" fill="#fe6a16"/></g><g><path d="m157.479 237.479v-66.745h17.212v66.745z" fill="#fe6a16"/></g><g><path d="m232.131 237.479-28.219-38.626v38.626h-17.212v-66.745h17.712l27.019 36.725v-36.725h17.312v66.745z" fill="#fe6a16"/></g><g><path d="m260.752 237.479v-66.745h17.212v66.745z" fill="#f24500"/></g><g><path d="m285.17 228.072 9.105-12.909c4.804 4.803 12.208 8.806 21.314 8.806 5.904 0 9.507-2.301 9.507-5.503 0-9.106-37.826-1.801-37.826-27.519 0-11.208 9.507-21.214 26.618-21.214 10.707 0 20.014 3.202 27.118 9.306l-9.406 12.309c-5.604-4.603-12.908-6.905-19.513-6.905-5.004 0-7.205 2.001-7.205 4.803 0 8.506 37.726 2.302 37.726 27.118 0 13.409-9.907 22.315-27.819 22.315-13.509 0-22.915-4.202-29.619-10.607z" fill="#f24500"/></g><g><path d="m395.546 237.479v-26.818h-27.719v26.818h-17.212v-66.745h17.212v24.917h27.719v-24.917h17.211v66.745z" fill="#f24500"/></g></g></g></svg>